<svg xmlns="http://www.w3.org/2000/svg" version="1.1" xmlns:xlink="http://www.w3.org/1999/xlink" xmlns:svgjs="http://svgjs.com/svgjs" width="512" height="512" x="0" y="0" viewBox="0 0 64 64" style="enable-background:new 0 0 512 512" xml:space="preserve" class=""><g><path d="M60.447,17.105l-28-14a1,1,0,0,0-.894,0l-28,14A1,1,0,0,0,3,18V46a1,1,0,0,0,.553.9l28,14a1,1,0,0,0,.894,0l28-14A1,1,0,0,0,61,46V18A1,1,0,0,0,60.447,17.105ZM32,30.882l-7.817-3.909L49.169,13.7l8.6,4.3ZM16.183,22.973,41.169,9.7l5.8,2.9L21.986,25.875ZM15,24.618l6,3v7.968l-2.293-2.293A1,1,0,0,0,18,33H15Zm17-19.5L38.972,8.6,13.986,21.875,6.236,18ZM5,19.618l8,4V34a1,1,0,0,0,1,1h3.586l3.707,3.707A1,1,0,0,0,23,38V28.618l8,4V58.382l-26-13ZM33,58.382V32.618l26-13V45.382Z" fill="#000000" data-original="#000000" class=""></path></g></svg>