<svg xmlns="http://www.w3.org/2000/svg" version="1.1" xmlns:xlink="http://www.w3.org/1999/xlink" xmlns:svgjs="http://svgjs.com/svgjs" width="512" height="512" x="0" y="0" viewBox="0 0 48 48" style="enable-background:new 0 0 512 512" xml:space="preserve" class=""><g><g id="Options,-preference,-preferences,-settings,-specifications,-specifics-12" fill="none" fill-rule="evenodd"><path id="Shape" d="m24 34c2.4188915 0 4.4366008 1.7176654 4.8999437 3.999812l15.1000563.000188v2l-15.1002591.0011864c-.4637287 2.2816492-2.4812022 3.9988136-4.8997409 3.9988136s-4.4360122-1.7171644-4.8997409-3.9988136l-15.1002591-.0011864v-2l15.1000563-.000188c.4633429-2.2821466 2.4810522-3.999812 4.8999437-3.999812zm0 2c-1.6568542 0-3 1.3431458-3 3s1.3431458 3 3 3 3-1.3431458 3-3-1.3431458-3-3-3zm10-17c2.4188915 0 4.4366008 1.7176654 4.8999437 3.999812l5.1000563.000188v2l-5.1002591.0011864c-.4637287 2.2816492-2.4812022 3.9988136-4.8997409 3.9988136s-4.4360122-1.7171644-4.8997409-3.9988136l-25.1002591-.0011864v-2l25.1000563-.000188c.4633429-2.2821466 2.4810522-3.999812 4.8999437-3.999812zm0 2c-1.6568542 0-3 1.3431458-3 3s1.3431458 3 3 3 3-1.3431458 3-3-1.3431458-3-3-3zm-20-17c2.4188915 0 4.4366008 1.71766536 4.8999437 3.99981203l25.1000563.00018797v2l-25.1002591.0011864c-.4637287 2.2816492-2.4812022 3.9988136-4.8997409 3.9988136s-4.43601224-1.7171644-4.89974091-3.9988136l-5.10025909-.0011864v-2l5.10005628-.00018797c.46334296-2.28214667 2.48105222-3.99981203 4.89994372-3.99981203zm0 2c-1.6568542 0-3 1.34314575-3 3 0 1.6568542 1.3431458 3 3 3s3-1.3431458 3-3c0-1.65685425-1.3431458-3-3-3z" fill="#808080" fill-rule="nonzero" data-original="#808080"></path></g></g></svg>