<svg xmlns="http://www.w3.org/2000/svg" version="1.1" xmlns:xlink="http://www.w3.org/1999/xlink" xmlns:svgjs="http://svgjs.com/svgjs" width="512" height="512" x="0" y="0" viewBox="0 0 48 48" style="enable-background:new 0 0 512 512" xml:space="preserve" class=""><g><g id="SMS"><path d="m42 3h-36a5.0059 5.0059 0 0 0 -5 5v22a5.0059 5.0059 0 0 0 5 5h2v7.9551a2.0315 2.0315 0 0 0 1.2686 1.9014 1.9621 1.9621 0 0 0 2.16-.4717l8.9982-9.3848h21.5732a5.0059 5.0059 0 0 0 5-5v-22a5.0059 5.0059 0 0 0 -5-5zm3 27a3.0033 3.0033 0 0 1 -3 3h-22a1.0009 1.0009 0 0 0 -.7217.3076l-9.2783 9.6475v-8.9551a.9994.9994 0 0 0 -1-1h-3a3.0033 3.0033 0 0 1 -3-3v-22a3.0033 3.0033 0 0 1 3-3h36a3.0033 3.0033 0 0 1 3 3zm-34-17a.9994.9994 0 0 1 1-1h10a1 1 0 0 1 0 2h-10a.9994.9994 0 0 1 -1-1zm22 12a.9994.9994 0 0 1 -1 1h-20a1 1 0 0 1 0-2h20a.9994.9994 0 0 1 1 1zm4-6a.9994.9994 0 0 1 -1 1h-24a1 1 0 0 1 0-2h24a.9994.9994 0 0 1 1 1z" fill="#808080" data-original="#808080" class=""></path></g></g></svg>