<svg xmlns="http://www.w3.org/2000/svg" version="1.1" xmlns:xlink="http://www.w3.org/1999/xlink" xmlns:svgjs="http://svgjs.com/svgjs" width="512" height="512" x="0" y="0" viewBox="0 0 16 18" style="enable-background:new 0 0 512 512" xml:space="preserve"><g><g fill="rgb(0,0,0)"><path d="m4.72786 1.51121c.2942-.29159.29632-.766456.00473-1.060653-.29158-.294197-.76645-.296316-1.06065-.004732l-1.44114 1.428335c-.53618.53139-.98336.97458-1.302208 1.3716-.334426.41642-.588798.85407-.65676 1.38726-.082929.65061.456632 1.0955.979498 1.0955h13.74867c.4142 0 .75-.33579.75-.75 0-.41422-.3358-.75-.75-.75h-12.93631c.01108-.01422.02256-.02872.03444-.04352.2591-.32262.64445-.70615 1.21935-1.27595z" fill="#000000" data-original="#000000"></path><path d="m.999999 12.2285c-.414213 0-.749999.3358-.749999.75s.335786.75.749999.75h13.136601c-.0111.0142-.0226.0287-.0345.0435-.2591.3227-.6444.7062-1.2193 1.276l-1.4104 1.3978c-.2942.2916-.2963.7665-.0047 1.0607.2915.2942.7664.2963 1.0606.0047l1.4411-1.4283c.5362-.5314.9834-.9746 1.3023-1.3716.3344-.4165.5887-.8541.6567-1.3873.003-.0232.0056-.0465.008-.0698.0611-.6029-.4344-1.0257-.9364-1.0257z" fill="#000000" data-original="#000000"></path></g></g></svg>